<svg width="1366" height="1024" viewBox="0 0 1366 1024" fill="none" xmlns="http://www.w3.org/2000/svg">
<path opacity="0.1" d="M661.951 -209.999L408.889 -42.0279C409.619 -37.0689 410.458 -31.2218 410.961 -23.7105C413.518 10.7753 411.207 56.0172 450.125 75.3339C490.522 95.4305 522.655 66.8972 558.349 52.1707C623.554 25.2209 652.123 76.7036 713.918 70.9089C768.35 65.8393 779.7 14.9182 772.751 -43.0692L661.951 -209.999Z" fill="#F67F20"/>
<path d="M188.1 969.1C166.4 986.3 154.1 999.8 151.1 1025.5H-27V911.4C-13.5 911 0.6 907.7 15.5 901.2C35.9 892.3 54 875.7 77.9 884.5C91.8 889.6 91.5 899.5 107.2 901.8C140.3 906.6 203.2 857.3 224.3 910.6C236.8 941.8 207.3 953.9 188.1 969.1Z" fill="#FEF2E9"/>
<path opacity="0.15" d="M616.5 917C605.167 917 605.167 934 616.5 934C627.833 934 627.833 917 616.5 917Z" fill="#F67F20"/>
<path opacity="0.15" d="M1129.5 24C1118.17 24 1118.17 41 1129.5 41C1140.83 41 1140.83 24 1129.5 24Z" fill="#F67F20"/>
<path opacity="0.15" d="M642.026 891C633.991 891 633.991 903 642.026 903C649.921 903 650.062 891 642.026 891Z" fill="#F67F20"/>
<path opacity="0.15" d="M1155.03 -2C1146.99 -2 1146.99 10 1155.03 10C1162.92 10 1163.06 -2 1155.03 -2Z" fill="#F67F20"/>
<path opacity="0.15" d="M616 975C610.667 975 610.667 982 616 982C621.333 982 621.333 975 616 975Z" fill="#F67F20"/>
<path opacity="0.15" d="M1129 82C1123.67 82 1123.67 89 1129 89C1134.33 89 1134.33 82 1129 82Z" fill="#F67F20"/>
<path opacity="0.15" d="M629.027 948C623.658 948 623.658 955 629.027 955C634.251 955 634.397 948 629.027 948Z" fill="#F67F20"/>
<path opacity="0.15" d="M1142.03 55C1136.66 55 1136.66 62 1142.03 62C1147.25 62 1147.4 55 1142.03 55Z" fill="#F67F20"/>
<path opacity="0.15" d="M672.5 901C667.833 901 667.833 908 672.5 908C677.167 908 677.167 901 672.5 901Z" fill="#F67F20"/>
<path opacity="0.15" d="M1185.5 8C1180.83 8 1180.83 15 1185.5 15C1190.17 15 1190.17 8 1185.5 8Z" fill="#F67F20"/>
<path opacity="0.15" d="M608 1010C605.333 1010 605.333 1013 608 1013C610.667 1013 610.667 1010 608 1010Z" fill="#F67F20"/>
<path opacity="0.15" d="M1121 117C1118.33 117 1118.33 120 1121 120C1123.67 120 1123.67 117 1121 117Z" fill="#F67F20"/>
<path opacity="0.15" d="M565.551 1019C562.15 1019 562.15 1024 565.551 1024C568.816 1024 568.816 1019 565.551 1019Z" fill="#F67F20"/>
<path opacity="0.15" d="M1078.55 126C1075.15 126 1075.15 131 1078.55 131C1081.82 131 1081.82 126 1078.55 126Z" fill="#F67F20"/>
<path opacity="0.15" d="M581 971C575.667 971 575.667 978 581 978C586.333 978 586.333 971 581 971Z" fill="#F67F20"/>
<path opacity="0.15" d="M1094 78C1088.67 78 1088.67 85 1094 85C1099.33 85 1099.33 78 1094 78Z" fill="#F67F20"/>
<path opacity="0.15" d="M584 931C578.667 931 578.667 939 584 939C589.333 939 589.333 931 584 931Z" fill="#F67F20"/>
<path opacity="0.15" d="M1097 38C1091.67 38 1091.67 46 1097 46C1102.33 46 1102.33 38 1097 38Z" fill="#F67F20"/>
<path opacity="0.15" d="M1306.89 664.429C1279.26 696.409 1289.65 751.344 1299.64 804.71C1310.61 862.588 1321.78 922.427 1284.94 954.015C1256.53 978.54 1220.68 969.122 1182.86 959.312C1153.47 951.661 1123.1 943.813 1095.87 952.838C1062.56 964.021 1036.3 989.919 1025.53 1022.29C1024.94 1023.86 1024.55 1025.43 1024.16 1027H1022C1022.59 1025.23 1022.98 1023.47 1023.57 1021.7C1034.54 988.742 1061.38 962.451 1095.08 951.072C1122.71 941.851 1153.47 949.699 1183.25 957.547C1220.68 967.16 1255.95 976.381 1283.57 952.642C1319.62 921.839 1308.46 862.588 1297.68 805.298C1287.49 751.737 1277.11 696.213 1305.32 663.448C1318.64 647.949 1339.81 638.532 1369 635V636.962C1340.39 640.297 1319.82 649.519 1306.89 664.429Z" fill="black"/>
<path d="M53.671 50.9326C55.4618 36.4964 62.2035 14.5284 72 -2H-1V233.268C11.0087 235.151 23.86 234.732 33.1299 218.622C49.0361 190.796 19.7518 159.622 27.9683 129.495C31.8658 115.268 46.7186 108.05 51.2482 94.9734C56.4098 79.9096 51.6696 66.5195 53.671 50.9326Z" fill="#FEF2E9"/>
</svg>
