<svg width="27" height="26" viewBox="0 0 27 26" fill="none" xmlns="http://www.w3.org/2000/svg">
<path d="M13.1189 0C5.9507 0 0.118896 5.8318 0.118896 13C0.118896 20.1682 5.9507 26 13.1189 26C15.0247 26 16.9682 25.5177 18.8935 24.5648L17.743 22.2339C16.1778 23.0074 14.6217 23.4 13.1189 23.4C7.3846 23.4 2.7189 18.7343 2.7189 13C2.7189 7.2657 7.3846 2.6 13.1189 2.6C18.8532 2.6 23.5189 7.2657 23.5189 13V14.3C23.5189 15.1996 23.112 16.9 21.5689 16.9C19.7541 16.9 19.6267 14.5353 19.6189 14.3V7.8H17.0189V7.8325C15.8999 6.97313 14.5298 6.50498 13.1189 6.5C9.5348 6.5 6.6189 9.4159 6.6189 13C6.6189 16.5841 9.5348 19.5 13.1189 19.5C15.0039 19.5 16.6913 18.6797 17.8795 17.3927C18.5607 18.5497 19.7099 19.5 21.5689 19.5C24.5238 19.5 26.1189 16.8207 26.1189 14.3V13C26.1189 5.8318 20.2871 0 13.1189 0ZM13.1189 16.9C10.9687 16.9 9.21889 15.1502 9.21889 13C9.21889 10.8498 10.9687 9.1 13.1189 9.1C15.2691 9.1 17.0189 10.8498 17.0189 13C17.0189 15.1502 15.2691 16.9 13.1189 16.9Z" fill="#F67F20"/>
</svg>
