<svg width="31" height="30" viewBox="0 0 31 30" fill="none" xmlns="http://www.w3.org/2000/svg">
<g clip-path="url(#clip0_31_673)">
<path d="M15.1189 6.25C17.1399 6.25 18.9955 6.94191 20.4768 8.09258L25.0233 3.75511C22.3799 1.42494 18.9198 0 15.1189 0C9.35943 0 4.36478 3.24989 1.8512 8.01231L6.90674 12.0035C8.13141 8.64922 11.3408 6.25 15.1189 6.25Z" fill="#F44336"/>
<path d="M29.989 16.8773C30.0671 16.2627 30.1189 15.6358 30.1189 15C30.1189 13.9277 30.0018 12.8835 29.7879 11.875H15.1189V18.125H23.2267C22.5708 19.8297 21.4029 21.2722 19.9164 22.2743L24.9907 26.2804C27.6806 23.9193 29.5214 20.6129 29.989 16.8773Z" fill="#2196F3"/>
<path d="M6.3689 15C6.3689 13.9457 6.56497 12.9395 6.90669 12.0035L1.85115 8.01231C0.749313 10.1 0.118896 12.4752 0.118896 15C0.118896 17.4966 0.737717 19.8454 1.81667 21.9162L6.87862 17.9199C6.55444 17.0055 6.3689 16.0255 6.3689 15Z" fill="#FFC107"/>
<path d="M15.1189 23.75C11.312 23.75 8.08191 21.3144 6.8786 17.9199L1.81665 21.9162C4.31795 26.7168 9.33115 30 15.1189 30C18.9036 30 22.3548 28.594 24.9907 26.2804L19.9164 22.2743C18.5454 23.1986 16.9044 23.75 15.1189 23.75Z" fill="#00B060"/>
<path opacity="0.1" d="M15.1189 29.6875C10.7043 29.6875 6.73482 27.8661 3.92834 24.9641C6.67561 28.0473 10.6645 30 15.1189 30C19.5321 30 23.488 28.0858 26.2291 25.051C23.4309 27.9058 19.4915 29.6875 15.1189 29.6875Z" fill="black"/>
<path opacity="0.1" d="M15.1189 17.8125V18.125H23.2267L23.3533 17.8125H15.1189Z" fill="black"/>
<path d="M30.1119 15.1838C30.1129 15.1222 30.1188 15.0617 30.1188 15C30.1188 14.9825 30.1161 14.9657 30.116 14.9482C30.1152 15.0269 30.1112 15.1048 30.1119 15.1838Z" fill="#E6E6E6"/>
<path opacity="0.2" d="M15.1189 11.875V12.1875H29.8509C29.8312 12.0844 29.8097 11.9774 29.7879 11.875H15.1189Z" fill="white"/>
<path d="M29.7879 11.875H15.1189V18.125H23.2267C21.9658 21.402 18.8404 23.75 15.1189 23.75C10.2864 23.75 6.3689 19.8325 6.3689 15C6.3689 10.1675 10.2864 6.25 15.1189 6.25C16.8712 6.25 18.4863 6.78833 19.8545 7.67586C20.064 7.81197 20.28 7.93976 20.4768 8.09258L25.0232 3.75511L24.9207 3.67622C22.2901 1.39633 18.8733 0 15.1189 0C6.83459 0 0.118896 6.7157 0.118896 15C0.118896 23.2842 6.83459 30 15.1189 30C22.766 30 29.0632 24.2735 29.989 16.8773C30.0671 16.2627 30.1189 15.6358 30.1189 15C30.1189 13.9277 30.0018 12.8835 29.7879 11.875Z" fill="url(#paint0_linear_31_673)"/>
<path opacity="0.1" d="M19.8545 7.36336C18.4863 6.47583 16.8712 5.9375 15.1189 5.9375C10.2864 5.9375 6.3689 9.85497 6.3689 14.6875C6.3689 14.7402 6.36961 14.7814 6.37052 14.834C6.45483 10.0744 10.3392 6.25 15.1189 6.25C16.8712 6.25 18.4863 6.78833 19.8545 7.67586C20.064 7.81197 20.28 7.93976 20.4768 8.09258L25.0232 3.75511L20.4768 7.78008C20.28 7.62726 20.064 7.49947 19.8545 7.36336Z" fill="black"/>
<path opacity="0.2" d="M15.1189 0.3125C18.8377 0.3125 22.2226 1.68549 24.843 3.927L25.0232 3.75511L24.8857 3.63534C22.2551 1.35545 18.8733 0 15.1189 0C6.8346 0 0.118896 6.7157 0.118896 15C0.118896 15.0527 0.126221 15.1036 0.126755 15.1562C0.211441 6.94481 6.88732 0.3125 15.1189 0.3125Z" fill="white"/>
</g>
<defs>
<linearGradient id="paint0_linear_31_673" x1="0.118896" y1="15" x2="30.1189" y2="15" gradientUnits="userSpaceOnUse">
<stop stop-color="white" stop-opacity="0.2"/>
<stop offset="1" stop-color="white" stop-opacity="0"/>
</linearGradient>
<clipPath id="clip0_31_673">
<rect width="30" height="30" fill="white" transform="translate(0.118896)"/>
</clipPath>
</defs>
</svg>
