<svg width="36" height="38" viewBox="0 0 36 38" fill="none" xmlns="http://www.w3.org/2000/svg">
<g filter="url(#filter0_d_249_1535)">
<path d="M31.3569 24.6574C31.3569 26.1752 30.8952 27.3737 29.9718 28.2528C29.0485 29.1319 27.8215 29.5714 26.291 29.5714H9.70843C8.17792 29.5714 6.95099 29.1319 6.02762 28.2528C5.10426 27.3737 4.64258 26.1752 4.64258 24.6574C4.64258 23.987 4.66471 23.3324 4.70898 22.6937C4.75326 22.0549 4.8418 21.3655 4.97461 20.6256C5.10742 19.8856 5.27502 19.1994 5.4774 18.567C5.67978 17.9345 5.95173 17.3179 6.29325 16.7171C6.63477 16.1163 7.02688 15.604 7.46959 15.1803C7.9123 14.7565 8.45303 14.4182 9.0918 14.1652C9.73056 13.9122 10.4357 13.7857 11.2073 13.7857C11.3212 13.7857 11.5868 13.9217 12.0042 14.1937C12.4216 14.4656 12.8928 14.7692 13.4177 15.1044C13.9426 15.4396 14.6257 15.7431 15.4668 16.0151C16.3079 16.287 17.1523 16.423 17.9997 16.423C18.8472 16.423 19.6915 16.287 20.5326 16.0151C21.3738 15.7431 22.0568 15.4396 22.5818 15.1044C23.1067 14.7692 23.5778 14.4656 23.9953 14.1937C24.4127 13.9217 24.6783 13.7857 24.7921 13.7857C25.5637 13.7857 26.2689 13.9122 26.9076 14.1652C27.5464 14.4182 28.0872 14.7565 28.5299 15.1803C28.9726 15.604 29.3647 16.1163 29.7062 16.7171C30.0477 17.3179 30.3197 17.9345 30.522 18.567C30.7244 19.1994 30.892 19.8856 31.0248 20.6256C31.1576 21.3655 31.2462 22.0549 31.2905 22.6937C31.3347 23.3324 31.3569 23.987 31.3569 24.6574ZM25.2854 7.7143C25.2854 9.72546 24.5739 11.4425 23.151 12.8655C21.728 14.2885 20.0109 15 17.9997 15C15.9886 15 14.2715 14.2885 12.8485 12.8655C11.4255 11.4425 10.714 9.72546 10.714 7.7143C10.714 5.70314 11.4255 3.98607 12.8485 2.56308C14.2715 1.14008 15.9886 0.428589 17.9997 0.428589C20.0109 0.428589 21.728 1.14008 23.151 2.56308C24.5739 3.98607 25.2854 5.70314 25.2854 7.7143Z" fill="#003048"/>
</g>
<defs>
<filter id="filter0_d_249_1535" x="0.642578" y="0.428589" width="34.7148" height="37.1429" filterUnits="userSpaceOnUse" color-interpolation-filters="sRGB">
<feFlood flood-opacity="0" result="BackgroundImageFix"/>
<feColorMatrix in="SourceAlpha" type="matrix" values="0 0 0 0 0 0 0 0 0 0 0 0 0 0 0 0 0 0 127 0" result="hardAlpha"/>
<feOffset dy="4"/>
<feGaussianBlur stdDeviation="2"/>
<feComposite in2="hardAlpha" operator="out"/>
<feColorMatrix type="matrix" values="0 0 0 0 0 0 0 0 0 0 0 0 0 0 0 0 0 0 0.25 0"/>
<feBlend mode="normal" in2="BackgroundImageFix" result="effect1_dropShadow_249_1535"/>
<feBlend mode="normal" in="SourceGraphic" in2="effect1_dropShadow_249_1535" result="shape"/>
</filter>
</defs>
</svg>
