<svg width="38" height="38" viewBox="0 0 38 38" fill="none" xmlns="http://www.w3.org/2000/svg">
<g filter="url(#filter0_d_55_1421)">
<path d="M8.99998 0H12.75C15.5114 0 17.75 2.23857 17.75 4.99998V8.74998C17.75 11.5114 15.5114 13.75 12.75 13.75H8.99998C6.23857 13.75 4 11.5114 4 8.74998V4.99998C4 2.23857 6.23857 0 8.99998 0Z" fill="#003048"/>
<path d="M25.25 0H29C31.7614 0 34 2.23857 34 4.99998V8.74998C34 11.5114 31.7614 13.75 29 13.75H25.25C22.4886 13.75 20.25 11.5114 20.25 8.74998V4.99998C20.2499 2.23857 22.4885 0 25.25 0Z" fill="#003048"/>
<path d="M8.99998 16.25H12.75C15.5114 16.25 17.75 18.4885 17.75 21.2499V24.9999C17.75 27.7614 15.5114 29.9999 12.75 29.9999H8.99998C6.23857 30 4 27.7614 4 25V21.25C4 18.4885 6.23857 16.25 8.99998 16.25Z" fill="#003048"/>
<path d="M25.25 16.25H29C31.7614 16.25 34 18.4885 34 21.2499V24.9999C34 27.7614 31.7614 30 29 30H25.25C22.4886 30 20.25 27.7614 20.25 25V21.25C20.2499 18.4885 22.4885 16.25 25.25 16.25Z" fill="#003048"/>
</g>
<defs>
<filter id="filter0_d_55_1421" x="0" y="0" width="38" height="38" filterUnits="userSpaceOnUse" color-interpolation-filters="sRGB">
<feFlood flood-opacity="0" result="BackgroundImageFix"/>
<feColorMatrix in="SourceAlpha" type="matrix" values="0 0 0 0 0 0 0 0 0 0 0 0 0 0 0 0 0 0 127 0" result="hardAlpha"/>
<feOffset dy="4"/>
<feGaussianBlur stdDeviation="2"/>
<feComposite in2="hardAlpha" operator="out"/>
<feColorMatrix type="matrix" values="0 0 0 0 0 0 0 0 0 0 0 0 0 0 0 0 0 0 0.25 0"/>
<feBlend mode="normal" in2="BackgroundImageFix" result="effect1_dropShadow_55_1421"/>
<feBlend mode="normal" in="SourceGraphic" in2="effect1_dropShadow_55_1421" result="shape"/>
</filter>
</defs>
</svg>
