<svg width="38" height="36" viewBox="0 0 38 36" fill="none" xmlns="http://www.w3.org/2000/svg">
<g filter="url(#filter0_d_245_1049)">
<path d="M33.1187 14.8813C33.6812 15.4438 34 16.2062 34 17C34 17.7938 33.6812 18.5562 33.1187 19.1187C32.5562 19.6812 31.7938 20 31 20H7C6.20438 20 5.44125 19.6812 4.87875 19.1187C4.31625 18.5562 4 17.7938 4 17C4 16.2062 4.31625 15.4438 4.87875 14.8813C5.44125 14.3188 6.20438 14 7 14H31C31.7938 14 32.5562 14.3188 33.1187 14.8813ZM32.7062 22.2938C32.8937 22.4813 33 22.7375 33 23V24C33 25.0063 32.5812 26.0812 31.8312 26.8312C31.0812 27.5812 30.0063 28 29 28H9C7.93937 28 6.92188 27.5812 6.17188 26.8312C5.42125 26.0812 5 25.0063 5 24V23C5 22.7375 5.10562 22.4813 5.29312 22.2938C5.48062 22.1063 5.735 22 6 22H32C32.2625 22 32.5187 22.1063 32.7062 22.2938ZM6.14937 11.8C5.87063 11.6625 5.62688 11.4688 5.43563 11.225C5.24438 10.9813 5.11188 10.7 5.04688 10.4C4.98188 10.0938 4.9875 9.78125 5.06188 9.48125C6.43625 4.06375 12.1562 0 19 0C25.8438 0 31.5625 4.06375 32.9375 9.48125C33.0125 9.78125 33.0188 10.0938 32.95 10.4C32.8875 10.7 32.7563 10.9813 32.5625 11.225C32.3188 11.4688 32.1313 11.6625 31.85 11.8C31.575 11.9313 31.2687 12 30.9562 12H7.04187C6.73312 12 6.4275 11.9313 6.14937 11.8ZM26.2938 5.29375C26.1063 5.48125 26 5.7375 26 6C26 6.2 26.0563 6.39375 26.1688 6.55625C26.2812 6.71875 26.3813 6.85 26.6187 6.925C26.8 6.94375 27 7.01875 27.1938 6.98125C27.3875 6.94375 27.5687 6.85 27.7062 6.70625C27.85 6.56875 27.9438 6.3875 27.9813 6.19375C28.0188 6 27.9437 5.8 27.925 5.61875C27.85 5.38125 27.7188 5.28125 27.5562 5.16875C27.3937 5.05625 27.2 4.94375 27 4.94375C26.7375 4.94375 26.4813 5.10625 26.2938 5.29375ZM18.2937 3.29313C18.1062 3.48063 18 3.735 18 4C18 4.1975 18.0562 4.39375 18.1687 4.55625C18.2812 4.71875 18.3812 4.85 18.6187 4.925C18.8 4.94375 19 5.01875 19.1938 4.98125C19.3875 4.94375 19.5687 4.85 19.7062 4.70625C19.85 4.56875 19.9438 4.3875 19.9813 4.195C20.0188 4.00125 19.9437 3.8 19.925 3.6175C19.85 3.43437 19.7188 3.27812 19.5562 3.16875C19.3937 3.05875 19.2 2.94375 19 2.94375C18.7375 2.94375 18.4812 3.10563 18.2937 3.29313ZM10.2937 5.29375C10.1062 5.48125 10 5.7375 10 6C10 6.2 10.0562 6.39375 10.1687 6.55625C10.2812 6.71875 10.3812 6.85 10.6188 6.925C10.8 6.94375 11 7.01875 11.1938 6.98125C11.3875 6.94375 11.5688 6.85 11.7063 6.70625C11.85 6.56875 11.9437 6.3875 11.9812 6.19375C12.0188 6 11.9438 5.8 11.925 5.61875C11.85 5.38125 11.7187 5.28125 11.5562 5.16875C11.3937 5.05625 11.2 4.94375 11 4.94375C10.7375 4.94375 10.4812 5.10625 10.2937 5.29375Z" fill="#003048"/>
</g>
<defs>
<filter id="filter0_d_245_1049" x="0" y="0" width="38" height="36" filterUnits="userSpaceOnUse" color-interpolation-filters="sRGB">
<feFlood flood-opacity="0" result="BackgroundImageFix"/>
<feColorMatrix in="SourceAlpha" type="matrix" values="0 0 0 0 0 0 0 0 0 0 0 0 0 0 0 0 0 0 127 0" result="hardAlpha"/>
<feOffset dy="4"/>
<feGaussianBlur stdDeviation="2"/>
<feComposite in2="hardAlpha" operator="out"/>
<feColorMatrix type="matrix" values="0 0 0 0 0 0 0 0 0 0 0 0 0 0 0 0 0 0 0.25 0"/>
<feBlend mode="normal" in2="BackgroundImageFix" result="effect1_dropShadow_245_1049"/>
<feBlend mode="normal" in="SourceGraphic" in2="effect1_dropShadow_245_1049" result="shape"/>
</filter>
</defs>
</svg>
