<svg width="36" height="38" viewBox="0 0 36 38" fill="none" xmlns="http://www.w3.org/2000/svg">
<g filter="url(#filter0_d_249_1909)">
<path d="M30.2468 17.1632L29.6879 16.8403C29.0228 16.4567 28.6254 15.7682 28.6254 15C28.6254 14.2318 29.0228 13.5433 29.6879 13.1597L30.2468 12.8368C31.7725 11.9549 32.2942 10.0084 31.4134 8.48263L30.3509 6.64237C29.4722 5.11981 27.5183 4.59706 25.9968 5.47575L25.4379 5.79769C24.7728 6.18231 23.977 6.18231 23.3129 5.79769C22.6478 5.41306 22.2504 4.72563 22.2504 3.95744V3.3125C22.2504 1.55512 20.8203 0.125 19.0629 0.125H16.9379C15.1805 0.125 13.7504 1.55512 13.7504 3.3125V3.9585C13.7504 4.72669 13.353 5.41412 12.6879 5.79875C12.0228 6.18231 11.228 6.18338 10.5629 5.79875L10.004 5.47575C8.48252 4.59706 6.52858 5.11981 5.64883 6.64237L4.58633 8.48263C3.70552 10.0084 4.22721 11.9559 5.75296 12.8368L6.31289 13.1597C6.97802 13.5433 7.37539 14.2318 7.37539 15C7.37539 15.7682 6.97802 16.4567 6.31289 16.8403L5.75402 17.1632C4.22827 18.0441 3.70658 19.9916 4.58739 21.5174L5.64989 23.3576C6.52964 24.8802 8.48358 25.4029 10.004 24.5243L10.5629 24.2023C11.228 23.8166 12.0228 23.8187 12.6879 24.2023C13.353 24.5869 13.7504 25.2744 13.7504 26.0426V26.6875C13.7504 28.4449 15.1805 29.875 16.9379 29.875H19.0629C20.8203 29.875 22.2504 28.4449 22.2504 26.6875V26.0415C22.2504 25.2733 22.6478 24.5859 23.3129 24.2013C23.977 23.8177 24.7728 23.8166 25.4379 24.2013L25.9968 24.5243C27.5183 25.4019 29.4722 24.8791 30.3509 23.3576L31.4134 21.5174C32.2942 19.9916 31.7725 18.0441 30.2468 17.1632ZM18.0004 20.3125C15.0711 20.3125 12.6879 17.9293 12.6879 15C12.6879 12.0707 15.0711 9.6875 18.0004 9.6875C20.9297 9.6875 23.3129 12.0707 23.3129 15C23.3129 17.9293 20.9297 20.3125 18.0004 20.3125Z" fill="#003048"/>
</g>
<defs>
<filter id="filter0_d_249_1909" x="0.158203" y="0.125" width="35.6836" height="37.75" filterUnits="userSpaceOnUse" color-interpolation-filters="sRGB">
<feFlood flood-opacity="0" result="BackgroundImageFix"/>
<feColorMatrix in="SourceAlpha" type="matrix" values="0 0 0 0 0 0 0 0 0 0 0 0 0 0 0 0 0 0 127 0" result="hardAlpha"/>
<feOffset dy="4"/>
<feGaussianBlur stdDeviation="2"/>
<feComposite in2="hardAlpha" operator="out"/>
<feColorMatrix type="matrix" values="0 0 0 0 0 0 0 0 0 0 0 0 0 0 0 0 0 0 0.25 0"/>
<feBlend mode="normal" in2="BackgroundImageFix" result="effect1_dropShadow_249_1909"/>
<feBlend mode="normal" in="SourceGraphic" in2="effect1_dropShadow_249_1909" result="shape"/>
</filter>
</defs>
</svg>
