<svg width="20" height="20" viewBox="0 0 20 20" fill="none" xmlns="http://www.w3.org/2000/svg">
<g clip-path="url(#clip0_1005_14849)">
<path d="M15 15.8318C15.1648 15.8318 15.3259 15.7829 15.4629 15.6913C15.5999 15.5997 15.7067 15.4696 15.7697 15.3174C15.8328 15.1651 15.8493 14.9976 15.8172 14.836C15.785 14.6743 15.7057 14.5259 15.5892 14.4093L10.4458 9.26682C9.66448 8.48569 8.60486 8.04688 7.50001 8.04688C6.39516 8.04688 5.33555 8.48569 4.55418 9.26682L2.74418 11.076C2.59238 11.2332 2.50839 11.4437 2.51029 11.6622C2.51218 11.8806 2.59982 12.0897 2.75433 12.2442C2.90884 12.3987 3.11785 12.4863 3.33635 12.4882C3.55484 12.4901 3.76535 12.4061 3.92251 12.2543L5.73251 10.4452C6.20853 9.99027 6.8416 9.73642 7.50001 9.73642C8.15843 9.73642 8.7915 9.99027 9.26751 10.4452L14.4108 15.5877C14.5671 15.7439 14.779 15.8318 15 15.8318Z" fill="#495057"/>
<path d="M13.3332 8.7474C13.91 8.7474 14.4739 8.57634 14.9536 8.25585C15.4332 7.93536 15.8071 7.47984 16.0278 6.94689C16.2486 6.41394 16.3063 5.8275 16.1938 5.26172C16.0813 4.69594 15.8035 4.17624 15.3956 3.76834C14.9877 3.36043 14.468 3.08265 13.9022 2.97011C13.3364 2.85757 12.75 2.91533 12.217 3.13608C11.6841 3.35684 11.2285 3.73067 10.9081 4.21032C10.5876 4.68996 10.4165 5.25387 10.4165 5.83073C10.4165 6.60428 10.7238 7.34614 11.2708 7.89313C11.8178 8.44011 12.5596 8.7474 13.3332 8.7474ZM13.3332 4.58073C13.5804 4.58073 13.8221 4.65404 14.0276 4.79139C14.2332 4.92875 14.3934 5.12397 14.488 5.35238C14.5826 5.58078 14.6074 5.83212 14.5592 6.07459C14.5109 6.31707 14.3919 6.5398 14.2171 6.71461C14.0422 6.88943 13.8195 7.00848 13.577 7.05671C13.3346 7.10494 13.0832 7.08019 12.8548 6.98558C12.6264 6.89097 12.4312 6.73075 12.2938 6.52519C12.1565 6.31963 12.0832 6.07796 12.0832 5.83073C12.0832 5.49921 12.2149 5.18127 12.4493 4.94685C12.6837 4.71243 13.0017 4.58073 13.3332 4.58073Z" fill="#495057"/>
<path d="M19.1668 13.3359C18.9458 13.3359 18.7339 13.4237 18.5776 13.58C18.4213 13.7363 18.3335 13.9483 18.3335 14.1693V15.8359C18.3335 16.499 18.0701 17.1349 17.6013 17.6037C17.1324 18.0725 16.4965 18.3359 15.8335 18.3359H14.1668C13.9458 18.3359 13.7339 18.4237 13.5776 18.58C13.4213 18.7363 13.3335 18.9483 13.3335 19.1693C13.3335 19.3903 13.4213 19.6022 13.5776 19.7585C13.7339 19.9148 13.9458 20.0026 14.1668 20.0026H15.8335C16.9382 20.0013 17.9972 19.5619 18.7783 18.7808C19.5594 17.9996 19.9988 16.9406 20.0002 15.8359V14.1693C20.0002 13.9483 19.9124 13.7363 19.7561 13.58C19.5998 13.4237 19.3878 13.3359 19.1668 13.3359Z" fill="#495057"/>
<path d="M0.833333 6.66667C1.05435 6.66667 1.26631 6.57887 1.42259 6.42259C1.57887 6.26631 1.66667 6.05435 1.66667 5.83333V4.16667C1.66667 3.50363 1.93006 2.86774 2.3989 2.3989C2.86774 1.93006 3.50363 1.66667 4.16667 1.66667H5.83333C6.05435 1.66667 6.26631 1.57887 6.42259 1.42259C6.57887 1.26631 6.66667 1.05435 6.66667 0.833333C6.66667 0.61232 6.57887 0.400358 6.42259 0.244078C6.26631 0.0877974 6.05435 0 5.83333 0L4.16667 0C3.062 0.00132321 2.00296 0.440735 1.22185 1.22185C0.440735 2.00296 0.00132321 3.062 0 4.16667L0 5.83333C0 6.05435 0.0877974 6.26631 0.244078 6.42259C0.400358 6.57887 0.61232 6.66667 0.833333 6.66667Z" fill="#495057"/>
<path d="M5.83333 18.3359H4.16667C3.50363 18.3359 2.86774 18.0725 2.3989 17.6037C1.93006 17.1349 1.66667 16.499 1.66667 15.8359V14.1693C1.66667 13.9483 1.57887 13.7363 1.42259 13.58C1.26631 13.4237 1.05435 13.3359 0.833333 13.3359C0.61232 13.3359 0.400358 13.4237 0.244078 13.58C0.0877974 13.7363 0 13.9483 0 14.1693L0 15.8359C0.00132321 16.9406 0.440735 17.9996 1.22185 18.7808C2.00296 19.5619 3.062 20.0013 4.16667 20.0026H5.83333C6.05435 20.0026 6.26631 19.9148 6.42259 19.7585C6.57887 19.6022 6.66667 19.3903 6.66667 19.1693C6.66667 18.9483 6.57887 18.7363 6.42259 18.58C6.26631 18.4237 6.05435 18.3359 5.83333 18.3359Z" fill="#495057"/>
<path d="M15.8333 0H14.1666C13.9456 0 13.7336 0.0877974 13.5773 0.244078C13.421 0.400358 13.3333 0.61232 13.3333 0.833333C13.3333 1.05435 13.421 1.26631 13.5773 1.42259C13.7336 1.57887 13.9456 1.66667 14.1666 1.66667H15.8333C16.4963 1.66667 17.1322 1.93006 17.601 2.3989C18.0699 2.86774 18.3333 3.50363 18.3333 4.16667V5.83333C18.3333 6.05435 18.421 6.26631 18.5773 6.42259C18.7336 6.57887 18.9456 6.66667 19.1666 6.66667C19.3876 6.66667 19.5996 6.57887 19.7558 6.42259C19.9121 6.26631 19.9999 6.05435 19.9999 5.83333V4.16667C19.9986 3.062 19.5592 2.00296 18.7781 1.22185C17.997 0.440735 16.9379 0.00132321 15.8333 0Z" fill="#495057"/>
</g>
<defs>
<clipPath id="clip0_1005_14849">
<rect width="20" height="20" fill="white"/>
</clipPath>
</defs>
</svg>
