<svg width="34" height="37" viewBox="0 0 34 37" fill="none" xmlns="http://www.w3.org/2000/svg">
<path d="M20.544 19.0792C22.2637 18.3195 23.7229 17.0712 24.7407 15.4892C25.7584 13.9072 26.29 12.061 26.2695 10.1794C26.3602 8.943 26.1958 7.70113 25.7866 6.53099C25.3775 5.36085 24.7322 4.28746 23.891 3.37754C23.0498 2.46762 22.0306 1.74061 20.8969 1.24171C19.7631 0.742806 18.5389 0.482669 17.3004 0.477466C16.0619 0.472263 14.8356 0.722107 13.6976 1.21147C12.5597 1.70083 11.5345 2.41924 10.6857 3.32207C9.83689 4.22489 9.18269 5.29282 8.76371 6.45948C8.34473 7.62614 8.16996 8.86659 8.25023 10.1037C8.21285 11.9999 8.73782 13.8646 9.75885 15.4621C10.7799 17.0597 12.2511 18.3184 13.9866 19.0792C0.12641 21.1771 0.752965 36.2625 0.752965 36.2625L33.5399 36.4139C33.5399 36.4139 34.2853 21.1555 20.544 19.0792Z" fill="#F67F20"/>
</svg>
